<?xml version='1.0' encoding='UTF-8' standalone='no'?>
<svg xmlns="http://www.w3.org/2000/svg" xmlns:xlink="http://www.w3.org/1999/xlink" width="246pt" height="182pt" viewBox="0 0 246 182">
 <title>Figure 1</title>
 <desc>
Creator: GL2PS 1.4.2, (C) 1999-2020 C. Geuzaine
For: Octave
CreationDate: Wed Nov 23 12:34:43 2022
</desc>
 <defs/>
 <polygon points="0,0 246,0 246,182 0,182" fill="#ffffff"/>
 <g>
  <polygon points="0,182 246,182 246,0 0,0" fill="#ffffff" shape-rendering="crispEdges"/>
  <clipPath id="cp00246182">
   <polygon points="0,182 246,182 246,0 0,0"/>
  </clipPath>
  <g clip-path="url(#cp00246182)">
   <polygon points="32.0918,162.013 223.408,162.013 223.408,13.6875 32.0918,13.6875" fill="#ffffff" shape-rendering="crispEdges"/>
   <polygon points="38.2405,162.013 38.2405,161.59 36.5244,161.59 36.5244,162.013" fill="#20928c" shape-rendering="crispEdges"/>
   <polygon points="45.1049,162.013 45.1049,161.59 43.3888,161.59 43.3888,162.013" fill="#20928c" shape-rendering="crispEdges"/>
   <polygon points="46.8211,162.013 46.8211,161.166 45.1049,161.166 45.1049,162.013" fill="#20928c" shape-rendering="crispEdges"/>
   <polygon points="51.9694,162.013 51.9694,160.742 50.2533,160.742 50.2533,162.013" fill="#20928c" shape-rendering="crispEdges"/>
   <polygon points="53.6855,162.013 53.6855,161.59 51.9694,161.59 51.9694,162.013" fill="#20928c" shape-rendering="crispEdges"/>
   <polygon points="57.1177,162.013 58.8338,162.013 60.5499,162.013 60.5499,159.895 58.8338,159.895 57.1177,159.895 55.4016,159.895 55.4016,162.013" fill="#20928c" shape-rendering="crispEdges"/>
   <polygon points="62.2661,162.013 62.2661,158.623 60.5499,158.623 60.5499,162.013" fill="#20928c" shape-rendering="crispEdges"/>
   <polygon points="63.9822,162.013 65.6983,162.013 65.6983,157.776 63.9822,157.776 62.2661,157.776 62.2661,162.013" fill="#20928c" shape-rendering="crispEdges"/>
   <polygon points="67.4144,162.013 67.4144,158.199 65.6983,158.199 65.6983,162.013" fill="#20928c" shape-rendering="crispEdges"/>
   <polygon points="69.1305,162.013 69.1305,157.776 67.4144,157.776 67.4144,162.013" fill="#20928c" shape-rendering="crispEdges"/>
   <polygon points="70.8466,162.013 70.8466,155.233 69.1305,155.233 69.1305,162.013" fill="#20928c" shape-rendering="crispEdges"/>
   <polygon points="72.5627,162.013 72.5627,157.352 70.8466,157.352 70.8466,162.013" fill="#20928c" shape-rendering="crispEdges"/>
   <polygon points="74.2788,162.013 74.2788,145.909 72.5627,145.909 72.5627,162.013" fill="#20928c" shape-rendering="crispEdges"/>
   <polygon points="75.9949,162.013 75.9949,150.147 74.2788,150.147 74.2788,162.013" fill="#20928c" shape-rendering="crispEdges"/>
   <polygon points="77.7111,162.013 77.7111,145.486 75.9949,145.486 75.9949,162.013" fill="#20928c" shape-rendering="crispEdges"/>
   <polygon points="79.4272,162.013 79.4272,148.452 77.7111,148.452 77.7111,162.013" fill="#20928c" shape-rendering="crispEdges"/>
   <polygon points="81.1433,162.013 81.1433,145.486 79.4272,145.486 79.4272,162.013" fill="#20928c" shape-rendering="crispEdges"/>
   <polygon points="82.8594,162.013 82.8594,139.553 81.1433,139.553 81.1433,162.013" fill="#20928c" shape-rendering="crispEdges"/>
   <polygon points="84.5755,162.013 84.5755,136.162 82.8594,136.162 82.8594,162.013" fill="#20928c" shape-rendering="crispEdges"/>
   <polygon points="86.2916,162.013 86.2916,134.043 84.5755,134.043 84.5755,162.013" fill="#20928c" shape-rendering="crispEdges"/>
   <polygon points="88.0077,162.013 88.0077,134.891 86.2916,134.891 86.2916,162.013" fill="#20928c" shape-rendering="crispEdges"/>
   <polygon points="89.7238,162.013 89.7238,127.263 88.0077,127.263 88.0077,162.013" fill="#20928c" shape-rendering="crispEdges"/>
   <polygon points="91.4399,162.013 91.4399,123.872 89.7238,123.872 89.7238,162.013" fill="#20928c" shape-rendering="crispEdges"/>
   <polygon points="93.1561,162.013 93.1561,118.363 91.4399,118.363 91.4399,162.013" fill="#20928c" shape-rendering="crispEdges"/>
   <polygon points="94.8722,162.013 94.8722,121.754 93.1561,121.754 93.1561,162.013" fill="#20928c" shape-rendering="crispEdges"/>
   <polygon points="96.5883,162.013 96.5883,112.854 94.8722,112.854 94.8722,162.013" fill="#20928c" shape-rendering="crispEdges"/>
   <polygon points="98.3044,162.013 98.3044,101.412 96.5883,101.412 96.5883,162.013" fill="#20928c" shape-rendering="crispEdges"/>
   <polygon points="100.021,162.013 100.021,104.378 98.3044,104.378 98.3044,162.013" fill="#20928c" shape-rendering="crispEdges"/>
   <polygon points="101.737,162.013 101.737,106.497 100.021,106.497 100.021,162.013" fill="#20928c" shape-rendering="crispEdges"/>
   <polygon points="103.453,162.013 103.453,93.3597 101.737,93.3597 101.737,162.013" fill="#20928c" shape-rendering="crispEdges"/>
   <polygon points="105.169,162.013 105.169,81.0699 103.453,81.0699 103.453,162.013" fill="#20928c" shape-rendering="crispEdges"/>
   <polygon points="106.885,162.013 106.885,76.4082 105.169,76.4082 105.169,162.013" fill="#20928c" shape-rendering="crispEdges"/>
   <polygon points="108.601,162.013 108.601,81.0699 106.885,81.0699 106.885,162.013" fill="#20928c" shape-rendering="crispEdges"/>
   <polygon points="110.317,162.013 110.317,61.1518 108.601,61.1518 108.601,162.013" fill="#20928c" shape-rendering="crispEdges"/>
   <polygon points="112.033,162.013 112.033,61.9994 110.317,61.9994 110.317,162.013" fill="#20928c" shape-rendering="crispEdges"/>
   <polygon points="113.749,162.013 113.749,62.4232 112.033,62.4232 112.033,162.013" fill="#20928c" shape-rendering="crispEdges"/>
   <polygon points="115.466,162.013 115.466,60.728 113.749,60.728 113.749,162.013" fill="#20928c" shape-rendering="crispEdges"/>
   <polygon points="117.182,162.013 117.182,47.1668 115.466,47.1668 115.466,162.013" fill="#20928c" shape-rendering="crispEdges"/>
   <polygon points="118.898,162.013 118.898,53.9474 117.182,53.9474 117.182,162.013" fill="#20928c" shape-rendering="crispEdges"/>
   <polygon points="120.614,162.013 120.614,48.862 118.898,48.862 118.898,162.013" fill="#20928c" shape-rendering="crispEdges"/>
   <polygon points="122.33,162.013 122.33,48.4382 120.614,48.4382 120.614,162.013" fill="#20928c" shape-rendering="crispEdges"/>
   <polygon points="124.046,162.013 124.046,51.4047 122.33,51.4047 122.33,162.013" fill="#20928c" shape-rendering="crispEdges"/>
   <polygon points="125.762,162.013 125.762,47.5906 124.046,47.5906 124.046,162.013" fill="#20928c" shape-rendering="crispEdges"/>
   <polygon points="127.478,162.013 127.478,42.0813 125.762,42.0813 125.762,162.013" fill="#20928c" shape-rendering="crispEdges"/>
   <polygon points="129.194,162.013 129.194,46.3192 127.478,46.3192 127.478,162.013" fill="#20928c" shape-rendering="crispEdges"/>
   <polygon points="130.911,162.013 130.911,42.9289 129.194,42.9289 129.194,162.013" fill="#20928c" shape-rendering="crispEdges"/>
   <polygon points="132.627,162.013 132.627,36.1483 130.911,36.1483 130.911,162.013" fill="#20928c" shape-rendering="crispEdges"/>
   <polygon points="134.343,162.013 134.343,21.7395 132.627,21.7395 132.627,162.013" fill="#20928c" shape-rendering="crispEdges"/>
   <polygon points="136.059,162.013 136.059,46.743 134.343,46.743 134.343,162.013" fill="#20928c" shape-rendering="crispEdges"/>
   <polygon points="137.775,162.013 137.775,36.1483 136.059,36.1483 136.059,162.013" fill="#20928c" shape-rendering="crispEdges"/>
   <polygon points="139.491,162.013 139.491,54.3712 137.775,54.3712 137.775,162.013" fill="#20928c" shape-rendering="crispEdges"/>
   <polygon points="141.207,162.013 141.207,69.2038 139.491,69.2038 139.491,162.013" fill="#20928c" shape-rendering="crispEdges"/>
   <polygon points="142.923,162.013 142.923,63.6945 141.207,63.6945 141.207,162.013" fill="#20928c" shape-rendering="crispEdges"/>
   <polygon points="144.639,162.013 144.639,79.7985 142.923,79.7985 142.923,162.013" fill="#20928c" shape-rendering="crispEdges"/>
   <polygon points="146.356,162.013 146.356,78.9509 144.639,78.9509 144.639,162.013" fill="#20928c" shape-rendering="crispEdges"/>
   <polygon points="148.072,162.013 148.072,80.2223 146.356,80.2223 146.356,162.013" fill="#20928c" shape-rendering="crispEdges"/>
   <polygon points="149.788,162.013 149.788,82.3412 148.072,82.3412 148.072,162.013" fill="#20928c" shape-rendering="crispEdges"/>
   <polygon points="151.504,162.013 151.504,80.6461 149.788,80.6461 149.788,162.013" fill="#20928c" shape-rendering="crispEdges"/>
   <polygon points="153.22,162.013 153.22,90.817 151.504,90.817 151.504,162.013" fill="#20928c" shape-rendering="crispEdges"/>
   <polygon points="154.936,162.013 154.936,101.412 153.22,101.412 153.22,162.013" fill="#20928c" shape-rendering="crispEdges"/>
   <polygon points="156.652,162.013 156.652,103.954 154.936,103.954 154.936,162.013" fill="#20928c" shape-rendering="crispEdges"/>
   <polygon points="158.368,162.013 158.368,105.65 156.652,105.65 156.652,162.013" fill="#20928c" shape-rendering="crispEdges"/>
   <polygon points="160.084,162.013 160.084,102.683 158.368,102.683 158.368,162.013" fill="#20928c" shape-rendering="crispEdges"/>
   <polygon points="161.801,162.013 161.801,115.397 160.084,115.397 160.084,162.013" fill="#20928c" shape-rendering="crispEdges"/>
   <polygon points="163.517,162.013 163.517,123.025 161.801,123.025 161.801,162.013" fill="#20928c" shape-rendering="crispEdges"/>
   <polygon points="165.233,162.013 165.233,128.534 163.517,128.534 163.517,162.013" fill="#20928c" shape-rendering="crispEdges"/>
   <polygon points="166.949,162.013 166.949,127.687 165.233,127.687 165.233,162.013" fill="#20928c" shape-rendering="crispEdges"/>
   <polygon points="168.665,162.013 168.665,128.11 166.949,128.11 166.949,162.013" fill="#20928c" shape-rendering="crispEdges"/>
   <polygon points="170.381,162.013 170.381,135.739 168.665,135.739 168.665,162.013" fill="#20928c" shape-rendering="crispEdges"/>
   <polygon points="172.097,162.013 172.097,140.4 170.381,140.4 170.381,162.013" fill="#20928c" shape-rendering="crispEdges"/>
   <polygon points="173.813,162.013 173.813,136.162 172.097,136.162 172.097,162.013" fill="#20928c" shape-rendering="crispEdges"/>
   <polygon points="175.529,162.013 175.529,143.791 173.813,143.791 173.813,162.013" fill="#20928c" shape-rendering="crispEdges"/>
   <polygon points="177.246,162.013 177.246,145.486 175.529,145.486 175.529,162.013" fill="#20928c" shape-rendering="crispEdges"/>
   <polygon points="178.962,162.013 178.962,146.757 177.246,146.757 177.246,162.013" fill="#20928c" shape-rendering="crispEdges"/>
   <polygon points="180.678,162.013 180.678,148.876 178.962,148.876 178.962,162.013" fill="#20928c" shape-rendering="crispEdges"/>
   <polygon points="182.394,162.013 182.394,152.69 180.678,152.69 180.678,162.013" fill="#20928c" shape-rendering="crispEdges"/>
   <polygon points="184.11,162.013 184.11,154.809 182.394,154.809 182.394,162.013" fill="#20928c" shape-rendering="crispEdges"/>
   <polygon points="185.826,162.013 185.826,155.657 184.11,155.657 184.11,162.013" fill="#20928c" shape-rendering="crispEdges"/>
   <polygon points="187.542,162.013 187.542,156.08 185.826,156.08 185.826,162.013" fill="#20928c" shape-rendering="crispEdges"/>
   <polygon points="189.258,162.013 189.258,159.895 187.542,159.895 187.542,162.013" fill="#20928c" shape-rendering="crispEdges"/>
   <polygon points="190.974,162.013 190.974,157.352 189.258,157.352 189.258,162.013" fill="#20928c" shape-rendering="crispEdges"/>
   <polygon points="192.691,162.013 194.407,162.013 194.407,160.742 192.691,160.742 190.974,160.742 190.974,162.013" fill="#20928c" shape-rendering="crispEdges"/>
   <polygon points="196.123,162.013 197.839,162.013 199.555,162.013 201.271,162.013 201.271,160.318 199.555,160.318 197.839,160.318 196.123,160.318 194.407,160.318 194.407,162.013" fill="#20928c" shape-rendering="crispEdges"/>
   <polygon points="202.987,162.013 202.987,160.742 201.271,160.742 201.271,162.013" fill="#20928c" shape-rendering="crispEdges"/>
   <polygon points="206.419,162.013 206.419,161.59 204.703,161.59 204.703,162.013" fill="#20928c" shape-rendering="crispEdges"/>
   <polygon points="208.136,162.013 208.136,160.742 206.419,160.742 206.419,162.013" fill="#20928c" shape-rendering="crispEdges"/>
   <polyline stroke="#000000" points="38.2405,161.59 36.5244,161.59 36.5244,162.013 38.2405,162.013 38.2405,161.59" stroke-linejoin="miter" stroke-linecap="butt" fill="none" stroke-width="0.5"/>
   <polyline stroke="#000000" points="45.1049,161.59 43.3888,161.59 43.3888,162.013 45.1049,162.013 45.1049,161.59" stroke-linejoin="miter" stroke-linecap="butt" fill="none" stroke-width="0.5"/>
   <polyline stroke="#000000" points="46.8211,161.166 45.1049,161.166 45.1049,162.013 46.8211,162.013 46.8211,161.166" stroke-linejoin="miter" stroke-linecap="butt" fill="none" stroke-width="0.5"/>
   <polyline stroke="#000000" points="51.9694,160.742 50.2533,160.742 50.2533,162.013 51.9694,162.013 51.9694,160.742" stroke-linejoin="miter" stroke-linecap="butt" fill="none" stroke-width="0.5"/>
   <polyline stroke="#000000" points="53.6855,161.59 51.9694,161.59 51.9694,162.013 53.6855,162.013 53.6855,161.59" stroke-linejoin="miter" stroke-linecap="butt" fill="none" stroke-width="0.5"/>
   <polyline stroke="#000000" points="57.1177,159.895 55.4016,159.895 55.4016,162.013 57.1177,162.013 57.1177,159.895" stroke-linejoin="miter" stroke-linecap="butt" fill="none" stroke-width="0.5"/>
   <polyline stroke="#000000" points="58.8338,159.895 57.1177,159.895 57.1177,162.013 58.8338,162.013 58.8338,159.895" stroke-linejoin="miter" stroke-linecap="butt" fill="none" stroke-width="0.5"/>
   <polyline stroke="#000000" points="60.5499,159.895 58.8338,159.895 58.8338,162.013 60.5499,162.013 60.5499,159.895" stroke-linejoin="miter" stroke-linecap="butt" fill="none" stroke-width="0.5"/>
   <polyline stroke="#000000" points="62.2661,158.623 60.5499,158.623 60.5499,162.013 62.2661,162.013 62.2661,158.623" stroke-linejoin="miter" stroke-linecap="butt" fill="none" stroke-width="0.5"/>
   <polyline stroke="#000000" points="63.9822,157.776 62.2661,157.776 62.2661,162.013 63.9822,162.013 63.9822,157.776" stroke-linejoin="miter" stroke-linecap="butt" fill="none" stroke-width="0.5"/>
   <polyline stroke="#000000" points="65.6983,157.776 63.9822,157.776 63.9822,162.013 65.6983,162.013 65.6983,157.776" stroke-linejoin="miter" stroke-linecap="butt" fill="none" stroke-width="0.5"/>
   <polyline stroke="#000000" points="67.4144,158.199 65.6983,158.199 65.6983,162.013 67.4144,162.013 67.4144,158.199" stroke-linejoin="miter" stroke-linecap="butt" fill="none" stroke-width="0.5"/>
   <polyline stroke="#000000" points="69.1305,157.776 67.4144,157.776 67.4144,162.013 69.1305,162.013 69.1305,157.776" stroke-linejoin="miter" stroke-linecap="butt" fill="none" stroke-width="0.5"/>
   <polyline stroke="#000000" points="70.8466,155.233 69.1305,155.233 69.1305,162.013 70.8466,162.013 70.8466,155.233" stroke-linejoin="miter" stroke-linecap="butt" fill="none" stroke-width="0.5"/>
   <polyline stroke="#000000" points="72.5627,157.352 70.8466,157.352 70.8466,162.013 72.5627,162.013 72.5627,157.352" stroke-linejoin="miter" stroke-linecap="butt" fill="none" stroke-width="0.5"/>
   <polyline stroke="#000000" points="74.2788,145.909 72.5627,145.909 72.5627,162.013 74.2788,162.013 74.2788,145.909" stroke-linejoin="miter" stroke-linecap="butt" fill="none" stroke-width="0.5"/>
   <polyline stroke="#000000" points="75.9949,150.147 74.2788,150.147 74.2788,162.013 75.9949,162.013 75.9949,150.147" stroke-linejoin="miter" stroke-linecap="butt" fill="none" stroke-width="0.5"/>
   <polyline stroke="#000000" points="77.7111,145.486 75.9949,145.486 75.9949,162.013 77.7111,162.013 77.7111,145.486" stroke-linejoin="miter" stroke-linecap="butt" fill="none" stroke-width="0.5"/>
   <polyline stroke="#000000" points="79.4272,148.452 77.7111,148.452 77.7111,162.013 79.4272,162.013 79.4272,148.452" stroke-linejoin="miter" stroke-linecap="butt" fill="none" stroke-width="0.5"/>
   <polyline stroke="#000000" points="81.1433,145.486 79.4272,145.486 79.4272,162.013 81.1433,162.013 81.1433,145.486" stroke-linejoin="miter" stroke-linecap="butt" fill="none" stroke-width="0.5"/>
   <polyline stroke="#000000" points="82.8594,139.553 81.1433,139.553 81.1433,162.013 82.8594,162.013 82.8594,139.553" stroke-linejoin="miter" stroke-linecap="butt" fill="none" stroke-width="0.5"/>
   <polyline stroke="#000000" points="84.5755,136.162 82.8594,136.162 82.8594,162.013 84.5755,162.013 84.5755,136.162" stroke-linejoin="miter" stroke-linecap="butt" fill="none" stroke-width="0.5"/>
   <polyline stroke="#000000" points="86.2916,134.043 84.5755,134.043 84.5755,162.013 86.2916,162.013 86.2916,134.043" stroke-linejoin="miter" stroke-linecap="butt" fill="none" stroke-width="0.5"/>
   <polyline stroke="#000000" points="88.0077,134.891 86.2916,134.891 86.2916,162.013 88.0077,162.013 88.0077,134.891" stroke-linejoin="miter" stroke-linecap="butt" fill="none" stroke-width="0.5"/>
   <polyline stroke="#000000" points="89.7238,127.263 88.0077,127.263 88.0077,162.013 89.7238,162.013 89.7238,127.263" stroke-linejoin="miter" stroke-linecap="butt" fill="none" stroke-width="0.5"/>
   <polyline stroke="#000000" points="91.4399,123.872 89.7238,123.872 89.7238,162.013 91.4399,162.013 91.4399,123.872" stroke-linejoin="miter" stroke-linecap="butt" fill="none" stroke-width="0.5"/>
   <polyline stroke="#000000" points="93.1561,118.363 91.4399,118.363 91.4399,162.013 93.1561,162.013 93.1561,118.363" stroke-linejoin="miter" stroke-linecap="butt" fill="none" stroke-width="0.5"/>
   <polyline stroke="#000000" points="94.8722,121.754 93.1561,121.754 93.1561,162.013 94.8722,162.013 94.8722,121.754" stroke-linejoin="miter" stroke-linecap="butt" fill="none" stroke-width="0.5"/>
   <polyline stroke="#000000" points="96.5883,112.854 94.8722,112.854 94.8722,162.013 96.5883,162.013 96.5883,112.854" stroke-linejoin="miter" stroke-linecap="butt" fill="none" stroke-width="0.5"/>
   <polyline stroke="#000000" points="98.3044,101.412 96.5883,101.412 96.5883,162.013 98.3044,162.013 98.3044,101.412" stroke-linejoin="miter" stroke-linecap="butt" fill="none" stroke-width="0.5"/>
   <polyline stroke="#000000" points="100.021,104.378 98.3044,104.378 98.3044,162.013 100.021,162.013 100.021,104.378" stroke-linejoin="miter" stroke-linecap="butt" fill="none" stroke-width="0.5"/>
   <polyline stroke="#000000" points="101.737,106.497 100.021,106.497 100.021,162.013 101.737,162.013 101.737,106.497" stroke-linejoin="miter" stroke-linecap="butt" fill="none" stroke-width="0.5"/>
   <polyline stroke="#000000" points="103.453,93.3597 101.737,93.3597 101.737,162.013 103.453,162.013 103.453,93.3597" stroke-linejoin="miter" stroke-linecap="butt" fill="none" stroke-width="0.5"/>
   <polyline stroke="#000000" points="105.169,81.0699 103.453,81.0699 103.453,162.013 105.169,162.013 105.169,81.0699" stroke-linejoin="miter" stroke-linecap="butt" fill="none" stroke-width="0.5"/>
   <polyline stroke="#000000" points="106.885,76.4082 105.169,76.4082 105.169,162.013 106.885,162.013 106.885,76.4082" stroke-linejoin="miter" stroke-linecap="butt" fill="none" stroke-width="0.5"/>
   <polyline stroke="#000000" points="108.601,81.0699 106.885,81.0699 106.885,162.013 108.601,162.013 108.601,81.0699" stroke-linejoin="miter" stroke-linecap="butt" fill="none" stroke-width="0.5"/>
   <polyline stroke="#000000" points="110.317,61.1518 108.601,61.1518 108.601,162.013 110.317,162.013 110.317,61.1518" stroke-linejoin="miter" stroke-linecap="butt" fill="none" stroke-width="0.5"/>
   <polyline stroke="#000000" points="112.033,61.9994 110.317,61.9994 110.317,162.013 112.033,162.013 112.033,61.9994" stroke-linejoin="miter" stroke-linecap="butt" fill="none" stroke-width="0.5"/>
   <polyline stroke="#000000" points="113.749,62.4232 112.033,62.4232 112.033,162.013 113.749,162.013 113.749,62.4232" stroke-linejoin="miter" stroke-linecap="butt" fill="none" stroke-width="0.5"/>
   <polyline stroke="#000000" points="115.466,60.728 113.749,60.728 113.749,162.013 115.466,162.013 115.466,60.728" stroke-linejoin="miter" stroke-linecap="butt" fill="none" stroke-width="0.5"/>
   <polyline stroke="#000000" points="117.182,47.1668 115.466,47.1668 115.466,162.013 117.182,162.013 117.182,47.1668" stroke-linejoin="miter" stroke-linecap="butt" fill="none" stroke-width="0.5"/>
   <polyline stroke="#000000" points="118.898,53.9474 117.182,53.9474 117.182,162.013 118.898,162.013 118.898,53.9474" stroke-linejoin="miter" stroke-linecap="butt" fill="none" stroke-width="0.5"/>
   <polyline stroke="#000000" points="120.614,48.862 118.898,48.862 118.898,162.013 120.614,162.013 120.614,48.862" stroke-linejoin="miter" stroke-linecap="butt" fill="none" stroke-width="0.5"/>
   <polyline stroke="#000000" points="122.33,48.4382 120.614,48.4382 120.614,162.013 122.33,162.013 122.33,48.4382" stroke-linejoin="miter" stroke-linecap="butt" fill="none" stroke-width="0.5"/>
   <polyline stroke="#000000" points="124.046,51.4047 122.33,51.4047 122.33,162.013 124.046,162.013 124.046,51.4047" stroke-linejoin="miter" stroke-linecap="butt" fill="none" stroke-width="0.5"/>
   <polyline stroke="#000000" points="125.762,47.5906 124.046,47.5906 124.046,162.013 125.762,162.013 125.762,47.5906" stroke-linejoin="miter" stroke-linecap="butt" fill="none" stroke-width="0.5"/>
   <polyline stroke="#000000" points="127.478,42.0813 125.762,42.0813 125.762,162.013 127.478,162.013 127.478,42.0813" stroke-linejoin="miter" stroke-linecap="butt" fill="none" stroke-width="0.5"/>
   <polyline stroke="#000000" points="129.194,46.3192 127.478,46.3192 127.478,162.013 129.194,162.013 129.194,46.3192" stroke-linejoin="miter" stroke-linecap="butt" fill="none" stroke-width="0.5"/>
   <polyline stroke="#000000" points="130.911,42.9289 129.194,42.9289 129.194,162.013 130.911,162.013 130.911,42.9289" stroke-linejoin="miter" stroke-linecap="butt" fill="none" stroke-width="0.5"/>
   <polyline stroke="#000000" points="132.627,36.1483 130.911,36.1483 130.911,162.013 132.627,162.013 132.627,36.1483" stroke-linejoin="miter" stroke-linecap="butt" fill="none" stroke-width="0.5"/>
   <polyline stroke="#000000" points="134.343,21.7395 132.627,21.7395 132.627,162.013 134.343,162.013 134.343,21.7395" stroke-linejoin="miter" stroke-linecap="butt" fill="none" stroke-width="0.5"/>
   <polyline stroke="#000000" points="136.059,46.743 134.343,46.743 134.343,162.013 136.059,162.013 136.059,46.743" stroke-linejoin="miter" stroke-linecap="butt" fill="none" stroke-width="0.5"/>
   <polyline stroke="#000000" points="137.775,36.1483 136.059,36.1483 136.059,162.013 137.775,162.013 137.775,36.1483" stroke-linejoin="miter" stroke-linecap="butt" fill="none" stroke-width="0.5"/>
   <polyline stroke="#000000" points="139.491,54.3712 137.775,54.3712 137.775,162.013 139.491,162.013 139.491,54.3712" stroke-linejoin="miter" stroke-linecap="butt" fill="none" stroke-width="0.5"/>
   <polyline stroke="#000000" points="141.207,69.2038 139.491,69.2038 139.491,162.013 141.207,162.013 141.207,69.2038" stroke-linejoin="miter" stroke-linecap="butt" fill="none" stroke-width="0.5"/>
   <polyline stroke="#000000" points="142.923,63.6945 141.207,63.6945 141.207,162.013 142.923,162.013 142.923,63.6945" stroke-linejoin="miter" stroke-linecap="butt" fill="none" stroke-width="0.5"/>
   <polyline stroke="#000000" points="144.639,79.7985 142.923,79.7985 142.923,162.013 144.639,162.013 144.639,79.7985" stroke-linejoin="miter" stroke-linecap="butt" fill="none" stroke-width="0.5"/>
   <polyline stroke="#000000" points="146.356,78.9509 144.639,78.9509 144.639,162.013 146.356,162.013 146.356,78.9509" stroke-linejoin="miter" stroke-linecap="butt" fill="none" stroke-width="0.5"/>
   <polyline stroke="#000000" points="148.072,80.2223 146.356,80.2223 146.356,162.013 148.072,162.013 148.072,80.2223" stroke-linejoin="miter" stroke-linecap="butt" fill="none" stroke-width="0.5"/>
   <polyline stroke="#000000" points="149.788,82.3412 148.072,82.3412 148.072,162.013 149.788,162.013 149.788,82.3412" stroke-linejoin="miter" stroke-linecap="butt" fill="none" stroke-width="0.5"/>
   <polyline stroke="#000000" points="151.504,80.6461 149.788,80.6461 149.788,162.013 151.504,162.013 151.504,80.6461" stroke-linejoin="miter" stroke-linecap="butt" fill="none" stroke-width="0.5"/>
   <polyline stroke="#000000" points="153.22,90.817 151.504,90.817 151.504,162.013 153.22,162.013 153.22,90.817" stroke-linejoin="miter" stroke-linecap="butt" fill="none" stroke-width="0.5"/>
   <polyline stroke="#000000" points="154.936,101.412 153.22,101.412 153.22,162.013 154.936,162.013 154.936,101.412" stroke-linejoin="miter" stroke-linecap="butt" fill="none" stroke-width="0.5"/>
   <polyline stroke="#000000" points="156.652,103.954 154.936,103.954 154.936,162.013 156.652,162.013 156.652,103.954" stroke-linejoin="miter" stroke-linecap="butt" fill="none" stroke-width="0.5"/>
   <polyline stroke="#000000" points="158.368,105.65 156.652,105.65 156.652,162.013 158.368,162.013 158.368,105.65" stroke-linejoin="miter" stroke-linecap="butt" fill="none" stroke-width="0.5"/>
   <polyline stroke="#000000" points="160.084,102.683 158.368,102.683 158.368,162.013 160.084,162.013 160.084,102.683" stroke-linejoin="miter" stroke-linecap="butt" fill="none" stroke-width="0.5"/>
   <polyline stroke="#000000" points="161.801,115.397 160.084,115.397 160.084,162.013 161.801,162.013 161.801,115.397" stroke-linejoin="miter" stroke-linecap="butt" fill="none" stroke-width="0.5"/>
   <polyline stroke="#000000" points="163.517,123.025 161.801,123.025 161.801,162.013 163.517,162.013 163.517,123.025" stroke-linejoin="miter" stroke-linecap="butt" fill="none" stroke-width="0.5"/>
   <polyline stroke="#000000" points="165.233,128.534 163.517,128.534 163.517,162.013 165.233,162.013 165.233,128.534" stroke-linejoin="miter" stroke-linecap="butt" fill="none" stroke-width="0.5"/>
   <polyline stroke="#000000" points="166.949,127.687 165.233,127.687 165.233,162.013 166.949,162.013 166.949,127.687" stroke-linejoin="miter" stroke-linecap="butt" fill="none" stroke-width="0.5"/>
   <polyline stroke="#000000" points="168.665,128.11 166.949,128.11 166.949,162.013 168.665,162.013 168.665,128.11" stroke-linejoin="miter" stroke-linecap="butt" fill="none" stroke-width="0.5"/>
   <polyline stroke="#000000" points="170.381,135.739 168.665,135.739 168.665,162.013 170.381,162.013 170.381,135.739" stroke-linejoin="miter" stroke-linecap="butt" fill="none" stroke-width="0.5"/>
   <polyline stroke="#000000" points="172.097,140.4 170.381,140.4 170.381,162.013 172.097,162.013 172.097,140.4" stroke-linejoin="miter" stroke-linecap="butt" fill="none" stroke-width="0.5"/>
   <polyline stroke="#000000" points="173.813,136.162 172.097,136.162 172.097,162.013 173.813,162.013 173.813,136.162" stroke-linejoin="miter" stroke-linecap="butt" fill="none" stroke-width="0.5"/>
   <polyline stroke="#000000" points="175.529,143.791 173.813,143.791 173.813,162.013 175.529,162.013 175.529,143.791" stroke-linejoin="miter" stroke-linecap="butt" fill="none" stroke-width="0.5"/>
   <polyline stroke="#000000" points="177.246,145.486 175.529,145.486 175.529,162.013 177.246,162.013 177.246,145.486" stroke-linejoin="miter" stroke-linecap="butt" fill="none" stroke-width="0.5"/>
   <polyline stroke="#000000" points="178.962,146.757 177.246,146.757 177.246,162.013 178.962,162.013 178.962,146.757" stroke-linejoin="miter" stroke-linecap="butt" fill="none" stroke-width="0.5"/>
   <polyline stroke="#000000" points="180.678,148.876 178.962,148.876 178.962,162.013 180.678,162.013 180.678,148.876" stroke-linejoin="miter" stroke-linecap="butt" fill="none" stroke-width="0.5"/>
   <polyline stroke="#000000" points="182.394,152.69 180.678,152.69 180.678,162.013 182.394,162.013 182.394,152.69" stroke-linejoin="miter" stroke-linecap="butt" fill="none" stroke-width="0.5"/>
   <polyline stroke="#000000" points="184.11,154.809 182.394,154.809 182.394,162.013 184.11,162.013 184.11,154.809" stroke-linejoin="miter" stroke-linecap="butt" fill="none" stroke-width="0.5"/>
   <polyline stroke="#000000" points="185.826,155.657 184.11,155.657 184.11,162.013 185.826,162.013 185.826,155.657" stroke-linejoin="miter" stroke-linecap="butt" fill="none" stroke-width="0.5"/>
   <polyline stroke="#000000" points="187.542,156.08 185.826,156.08 185.826,162.013 187.542,162.013 187.542,156.08" stroke-linejoin="miter" stroke-linecap="butt" fill="none" stroke-width="0.5"/>
   <polyline stroke="#000000" points="189.258,159.895 187.542,159.895 187.542,162.013 189.258,162.013 189.258,159.895" stroke-linejoin="miter" stroke-linecap="butt" fill="none" stroke-width="0.5"/>
   <polyline stroke="#000000" points="190.974,157.352 189.258,157.352 189.258,162.013 190.974,162.013 190.974,157.352" stroke-linejoin="miter" stroke-linecap="butt" fill="none" stroke-width="0.5"/>
   <polyline stroke="#000000" points="192.691,160.742 190.974,160.742 190.974,162.013 192.691,162.013 192.691,160.742" stroke-linejoin="miter" stroke-linecap="butt" fill="none" stroke-width="0.5"/>
   <polyline stroke="#000000" points="194.407,160.742 192.691,160.742 192.691,162.013 194.407,162.013 194.407,160.742" stroke-linejoin="miter" stroke-linecap="butt" fill="none" stroke-width="0.5"/>
   <polyline stroke="#000000" points="196.123,160.318 194.407,160.318 194.407,162.013 196.123,162.013 196.123,160.318" stroke-linejoin="miter" stroke-linecap="butt" fill="none" stroke-width="0.5"/>
   <polyline stroke="#000000" points="197.839,160.318 196.123,160.318 196.123,162.013 197.839,162.013 197.839,160.318" stroke-linejoin="miter" stroke-linecap="butt" fill="none" stroke-width="0.5"/>
   <polyline stroke="#000000" points="199.555,160.318 197.839,160.318 197.839,162.013 199.555,162.013 199.555,160.318" stroke-linejoin="miter" stroke-linecap="butt" fill="none" stroke-width="0.5"/>
   <polyline stroke="#000000" points="201.271,160.318 199.555,160.318 199.555,162.013 201.271,162.013 201.271,160.318" stroke-linejoin="miter" stroke-linecap="butt" fill="none" stroke-width="0.5"/>
   <polyline stroke="#000000" points="202.987,160.742 201.271,160.742 201.271,162.013 202.987,162.013 202.987,160.742" stroke-linejoin="miter" stroke-linecap="butt" fill="none" stroke-width="0.5"/>
   <polyline stroke="#000000" points="206.419,161.59 204.703,161.59 204.703,162.013 206.419,162.013 206.419,161.59" stroke-linejoin="miter" stroke-linecap="butt" fill="none" stroke-width="0.5"/>
   <polyline stroke="#000000" points="208.136,160.742 206.419,160.742 206.419,162.013 208.136,162.013 208.136,160.742" stroke-linejoin="miter" stroke-linecap="butt" fill="none" stroke-width="0.5"/>
   <polyline stroke="#262626" points="32.0918,162.013 32.0918,160.096" stroke-linejoin="miter" stroke-linecap="butt" fill="none" stroke-width="0.5"/>
   <polyline stroke="#262626" points="32.0918,13.6875 32.0918,15.6049" stroke-linejoin="miter" stroke-linecap="butt" fill="none" stroke-width="0.5"/>
   <polyline stroke="#262626" points="79.921,162.013 79.921,160.096" stroke-linejoin="miter" stroke-linecap="butt" fill="none" stroke-width="0.5"/>
   <polyline stroke="#262626" points="79.921,13.6875 79.921,15.6049" stroke-linejoin="miter" stroke-linecap="butt" fill="none" stroke-width="0.5"/>
   <polyline stroke="#262626" points="127.75,162.013 127.75,160.096" stroke-linejoin="miter" stroke-linecap="butt" fill="none" stroke-width="0.5"/>
   <polyline stroke="#262626" points="127.75,13.6875 127.75,15.6049" stroke-linejoin="miter" stroke-linecap="butt" fill="none" stroke-width="0.5"/>
   <polyline stroke="#262626" points="175.579,162.013 175.579,160.096" stroke-linejoin="miter" stroke-linecap="butt" fill="none" stroke-width="0.5"/>
   <polyline stroke="#262626" points="175.579,13.6875 175.579,15.6049" stroke-linejoin="miter" stroke-linecap="butt" fill="none" stroke-width="0.5"/>
   <polyline stroke="#262626" points="223.408,162.013 223.408,160.096" stroke-linejoin="miter" stroke-linecap="butt" fill="none" stroke-width="0.5"/>
   <polyline stroke="#262626" points="223.408,13.6875 223.408,15.6049" stroke-linejoin="miter" stroke-linecap="butt" fill="none" stroke-width="0.5"/>
   <g xml:space="preserve" font-family="FreeSans" font-style="normal" font-size="10" transform="translate(27.5918,177.53) rotate(-0,4.5,-8)" font-weight="normal">
    <text y="-0" fill="rgb(38,38,38)" x="0 3 ">-4</text>
   </g>
   <g xml:space="preserve" font-family="FreeSans" font-style="normal" font-size="10" transform="translate(75.421,177.53) rotate(-0,4.5,-8)" font-weight="normal">
    <text y="-0" fill="rgb(38,38,38)" x="0 3 ">-2</text>
   </g>
   <g xml:space="preserve" font-family="FreeSans" font-style="normal" font-size="10" transform="translate(124.75,177.53) rotate(-0,3,-8)" font-weight="normal">
    <text y="-0" fill="rgb(38,38,38)" x="0 ">0</text>
   </g>
   <g xml:space="preserve" font-family="FreeSans" font-style="normal" font-size="10" transform="translate(172.579,177.53) rotate(-0,3,-8)" font-weight="normal">
    <text y="-0" fill="rgb(38,38,38)" x="0 ">2</text>
   </g>
   <g xml:space="preserve" font-family="FreeSans" font-style="normal" font-size="10" transform="translate(220.408,177.53) rotate(-0,3,-8)" font-weight="normal">
    <text y="-0" fill="rgb(38,38,38)" x="0 ">4</text>
   </g>
   <polyline stroke="#262626" points="32.0918,162.013 34.0082,162.013" stroke-linejoin="miter" stroke-linecap="butt" fill="none" stroke-width="0.5"/>
   <polyline stroke="#262626" points="223.408,162.013 221.492,162.013" stroke-linejoin="miter" stroke-linecap="butt" fill="none" stroke-width="0.5"/>
   <polyline stroke="#262626" points="32.0918,140.824 34.0082,140.824" stroke-linejoin="miter" stroke-linecap="butt" fill="none" stroke-width="0.5"/>
   <polyline stroke="#262626" points="223.408,140.824 221.492,140.824" stroke-linejoin="miter" stroke-linecap="butt" fill="none" stroke-width="0.5"/>
   <polyline stroke="#262626" points="32.0918,119.635 34.0082,119.635" stroke-linejoin="miter" stroke-linecap="butt" fill="none" stroke-width="0.5"/>
   <polyline stroke="#262626" points="223.408,119.635 221.492,119.635" stroke-linejoin="miter" stroke-linecap="butt" fill="none" stroke-width="0.5"/>
   <polyline stroke="#262626" points="32.0918,98.4452 34.0082,98.4452" stroke-linejoin="miter" stroke-linecap="butt" fill="none" stroke-width="0.5"/>
   <polyline stroke="#262626" points="223.408,98.4452 221.492,98.4452" stroke-linejoin="miter" stroke-linecap="butt" fill="none" stroke-width="0.5"/>
   <polyline stroke="#262626" points="32.0918,77.2558 34.0082,77.2558" stroke-linejoin="miter" stroke-linecap="butt" fill="none" stroke-width="0.5"/>
   <polyline stroke="#262626" points="223.408,77.2558 221.492,77.2558" stroke-linejoin="miter" stroke-linecap="butt" fill="none" stroke-width="0.5"/>
   <polyline stroke="#262626" points="32.0918,56.0664 34.0082,56.0664" stroke-linejoin="miter" stroke-linecap="butt" fill="none" stroke-width="0.5"/>
   <polyline stroke="#262626" points="223.408,56.0664 221.492,56.0664" stroke-linejoin="miter" stroke-linecap="butt" fill="none" stroke-width="0.5"/>
   <polyline stroke="#262626" points="32.0918,34.8769 34.0082,34.8769" stroke-linejoin="miter" stroke-linecap="butt" fill="none" stroke-width="0.5"/>
   <polyline stroke="#262626" points="223.408,34.8769 221.492,34.8769" stroke-linejoin="miter" stroke-linecap="butt" fill="none" stroke-width="0.5"/>
   <polyline stroke="#262626" points="32.0918,13.6875 34.0082,13.6875" stroke-linejoin="miter" stroke-linecap="butt" fill="none" stroke-width="0.5"/>
   <polyline stroke="#262626" points="223.408,13.6875 221.492,13.6875" stroke-linejoin="miter" stroke-linecap="butt" fill="none" stroke-width="0.5"/>
   <g xml:space="preserve" font-family="FreeSans" font-style="normal" font-size="10" transform="translate(21.0835,166.013) rotate(-0,6,-4)" font-weight="normal">
    <text y="-0" fill="rgb(38,38,38)" x="0 ">0</text>
   </g>
   <g xml:space="preserve" font-family="FreeSans" font-style="normal" font-size="10" transform="translate(15.0835,144.824) rotate(-0,12,-4)" font-weight="normal">
    <text y="-0" fill="rgb(38,38,38)" x="0 6 ">50</text>
   </g>
   <g xml:space="preserve" font-family="FreeSans" font-style="normal" font-size="10" transform="translate(9.08354,123.635) rotate(-0,18,-4)" font-weight="normal">
    <text y="-0" fill="rgb(38,38,38)" x="0 6 12 ">100</text>
   </g>
   <g xml:space="preserve" font-family="FreeSans" font-style="normal" font-size="10" transform="translate(9.08354,102.445) rotate(-0,18,-4)" font-weight="normal">
    <text y="-0" fill="rgb(38,38,38)" x="0 6 12 ">150</text>
   </g>
   <g xml:space="preserve" font-family="FreeSans" font-style="normal" font-size="10" transform="translate(9.08354,81.2558) rotate(-0,18,-4)" font-weight="normal">
    <text y="-0" fill="rgb(38,38,38)" x="0 6 12 ">200</text>
   </g>
   <g xml:space="preserve" font-family="FreeSans" font-style="normal" font-size="10" transform="translate(9.08354,60.0664) rotate(-0,18,-4)" font-weight="normal">
    <text y="-0" fill="rgb(38,38,38)" x="0 6 12 ">250</text>
   </g>
   <g xml:space="preserve" font-family="FreeSans" font-style="normal" font-size="10" transform="translate(9.08354,38.8769) rotate(-0,18,-4)" font-weight="normal">
    <text y="-0" fill="rgb(38,38,38)" x="0 6 12 ">300</text>
   </g>
   <g xml:space="preserve" font-family="FreeSans" font-style="normal" font-size="10" transform="translate(9.08354,17.6875) rotate(-0,18,-4)" font-weight="normal">
    <text y="-0" fill="rgb(38,38,38)" x="0 6 12 ">350</text>
   </g>
   <polyline stroke-dasharray="16,0" stroke="#262626" points="32.0918,162.013 223.408,162.013" stroke-linejoin="miter" stroke-linecap="square" fill="none" stroke-width="0.5"/>
   <polyline stroke-dasharray="16,0" stroke="#262626" points="32.0918,13.6875 223.408,13.6875" stroke-linejoin="miter" stroke-linecap="square" fill="none" stroke-width="0.5"/>
   <polyline stroke-dasharray="16,0" stroke="#262626" points="32.0918,162.013 32.0918,13.6875" stroke-linejoin="miter" stroke-linecap="square" fill="none" stroke-width="0.5"/>
   <polyline stroke-dasharray="16,0" stroke="#262626" points="223.408,162.013 223.408,13.6875" stroke-linejoin="miter" stroke-linecap="square" fill="none" stroke-width="0.5"/>
  </g>
 </g>
</svg>
